<?xml version="1.0" standalone="no"?>
<!DOCTYPE svg PUBLIC "-//W3C//DTD SVG 20010904//EN"
 "http://www.w3.org/TR/2001/REC-SVG-20010904/DTD/svg10.dtd">
<svg version="1.0" xmlns="http://www.w3.org/2000/svg"
 width="1033.000000pt" height="1280.000000pt" viewBox="0 0 1033.000000 1280.000000"
 preserveAspectRatio="xMidYMid meet">
<g transform="translate(0.000000,1280.000000) scale(0.100000,-0.100000)"
fill="#000000" stroke="none">
<path d="M5069 12796 c-2 -2 -56 -11 -119 -20 -489 -70 -893 -336 -1144 -753
-306 -510 -291 -1182 39 -1673 67 -100 90 -127 199 -239 152 -157 321 -269
536 -356 l105 -42 0 -274 0 -274 -105 -6 c-58 -3 -128 -13 -157 -23 -65 -22
-136 -84 -175 -153 l-30 -53 -956 2 -955 3 -42 101 c-80 195 -226 371 -366
442 -252 128 -526 56 -722 -189 -439 -548 -246 -1575 328 -1745 88 -26 222
-24 305 5 208 72 374 256 470 521 l28 75 955 3 955 2 30 -53 c53 -94 151 -159
259 -173 l53 -6 0 -57 c0 -31 -4 -105 -10 -166 -28 -324 -59 -1021 -90 -1995
-11 -349 -25 -752 -30 -895 -55 -1425 -146 -2114 -327 -2467 -83 -162 -155
-218 -280 -218 -272 1 -679 204 -1148 571 -423 330 -881 792 -1070 1076 -26
40 -45 79 -42 86 9 24 64 30 286 32 l215 2 259 209 c142 115 266 215 275 222
11 9 13 15 5 23 -6 6 -593 309 -1304 674 -1265 647 -1294 662 -1298 636 -2
-14 2 -82 8 -151 7 -69 25 -433 41 -810 17 -377 34 -784 40 -905 5 -121 14
-326 20 -455 6 -129 15 -327 20 -440 5 -113 13 -281 16 -373 4 -92 11 -166 15
-165 5 2 32 21 60 43 72 57 225 284 581 865 20 33 41 60 46 60 4 0 36 -65 71
-144 158 -364 416 -783 872 -1418 213 -297 275 -371 441 -534 627 -615 1551
-1059 2448 -1178 328 -44 524 -52 740 -32 446 42 622 79 1045 220 301 101 350
119 496 187 523 241 965 622 1370 1179 119 165 303 448 471 725 229 380 304
500 404 650 113 169 255 360 269 360 11 0 18 -11 177 -270 61 -99 161 -259
224 -355 l113 -175 121 -92 c66 -51 124 -93 128 -93 5 0 14 249 20 552 24
1091 58 2404 69 2667 3 62 1 111 -4 108 -4 -2 -582 -314 -1283 -692 -701 -378
-1280 -692 -1287 -699 -9 -8 50 -58 240 -205 l252 -194 220 -2 c163 -1 230 -5
260 -16 39 -14 40 -16 39 -60 -6 -172 -389 -586 -989 -1068 -360 -290 -485
-377 -656 -453 -256 -115 -477 -178 -629 -179 -190 -1 -280 55 -361 225 -47
98 -103 310 -123 467 -48 366 -113 1416 -201 3219 -66 1379 -88 1869 -81 1885
3 9 18 15 35 15 43 0 131 20 165 37 47 25 131 110 151 153 l18 40 955 -2 955
-3 36 -91 c62 -153 117 -240 216 -340 105 -106 191 -155 319 -181 284 -57 578
152 717 512 120 309 115 707 -11 1003 -105 247 -286 425 -486 477 -298 77
-605 -128 -750 -502 l-36 -93 -956 2 -957 3 -24 44 c-35 64 -95 119 -159 149
-47 21 -76 26 -167 30 -65 3 -113 9 -117 16 -9 13 -10 491 -2 523 4 16 21 27
58 39 28 9 105 42 171 75 771 378 1090 1305 719 2089 -76 160 -163 281 -308
426 -276 276 -511 387 -977 463 -64 11 -211 15 -220 7z m282 -791 c282 -72
510 -297 591 -582 29 -101 31 -294 5 -392 -44 -163 -102 -265 -217 -382 -98
-99 -191 -159 -314 -200 -434 -146 -895 93 -1036 536 -32 99 -39 293 -15 400
53 241 214 449 430 558 56 28 168 64 242 77 68 13 238 4 314 -15z"/>
</g>
</svg>
